<?xml version="1.0" encoding="UTF-8" standalone="no"?>
<svg
   xmlns:dc="http://purl.org/dc/elements/1.1/"
   xmlns:cc="http://creativecommons.org/ns#"
   xmlns:rdf="http://www.w3.org/1999/02/22-rdf-syntax-ns#"
   xmlns:svg="http://www.w3.org/2000/svg"
   xmlns="http://www.w3.org/2000/svg"
   xmlns:sodipodi="http://sodipodi.sourceforge.net/DTD/sodipodi-0.dtd"
   xmlns:inkscape="http://www.inkscape.org/namespaces/inkscape"
   inkscape:export-ydpi="247.71001"
   inkscape:export-xdpi="247.71001"
   inkscape:export-filename="G:\DayZ_eAI_logo\v4\logo_v4.png"
   sodipodi:docname="eAI_logo_ver1_04_simplified.svg"
   inkscape:version="1.0.2 (e86c870879, 2021-01-15, custom)"
   id="svg1122"
   version="1.1"
   viewBox="0 0 210 210"
   height="210mm"
   width="210mm">
  <defs
     id="defs1116" />
  <sodipodi:namedview
     id="base"
     pagecolor="#ffffff"
     bordercolor="#666666"
     borderopacity="1.0"
     inkscape:pageopacity="0.0"
     inkscape:pageshadow="2"
     inkscape:zoom="0.5198546"
     inkscape:cx="-26.448267"
     inkscape:cy="498.76323"
     inkscape:document-units="mm"
     inkscape:current-layer="g1577"
     inkscape:document-rotation="0"
     showgrid="false"
     inkscape:window-width="3440"
     inkscape:window-height="1373"
     inkscape:window-x="-9"
     inkscape:window-y="-9"
     inkscape:window-maximized="1" />
  <metadata
     id="metadata1119">
    <rdf:RDF>
      <cc:Work
         rdf:about="">
        <dc:format>image/svg+xml</dc:format>
        <dc:type
           rdf:resource="http://purl.org/dc/dcmitype/StillImage" />
        <dc:title></dc:title>
      </cc:Work>
    </rdf:RDF>
  </metadata>
  <g
     inkscape:groupmode="layer"
     id="layer4"
     inkscape:label="black"
     style="display:none"
     sodipodi:insensitive="true">
    <rect
       style="fill:#000000;stroke:#ffffff;stroke-width:5.92355;stroke-dashoffset:1.70079;stroke-opacity:1"
       id="rect845"
       width="258.12009"
       height="253.51195"
       x="-21.591494"
       y="-17.641655" />
  </g>
  <g
     inkscape:label="v4 eye"
     inkscape:groupmode="layer"
     id="g1577"
     style="display:inline"
     sodipodi:insensitive="true">
    <path
       style="fill:#636363;fill-opacity:1;stroke-width:0.248173"
       d="m 106.16858,158.74035 c -44.203424,-0.0494 -55.450354,-0.12372 -55.35216,-0.36585 0.06777,-0.16713 10.733344,-26.49606 23.701274,-58.508687 12.967921,-32.012615 23.633227,-58.338759 23.700663,-58.502486 0.08631,-0.209421 1.144978,-0.317749 3.570383,-0.365309 13.61119,0 4.32935,0.05412 13.70476,0.05412 h 3.5003 l 0.50072,1.278556 c 0.27541,0.703204 10.93812,27.032374 23.6949,58.509196 12.75682,31.47687 23.25063,57.42248 23.31963,57.65688 0.11421,0.38804 -0.0978,0.42078 -2.36985,0.36584 -1.3724,-0.0332 -27.45918,-0.0883 -57.97062,-0.12231 z m 24.18685,-21.79638 C 130.1995,136.19588 108.89342,81.407514 108.66176,81.158921 108.51337,80.999684 87.205284,135.26226 86.732398,137.0036 c -0.131965,0.48596 -0.02686,0.48832 21.802332,0.48832 h 21.93491 z"
       id="path1625"
       sodipodi:nodetypes="sssscccsssssssssscs" />
    <path
       style="fill:#ffffff;fill-opacity:1;stroke-width:0.248173"
       d="M 58.065841,153.38425 C 58.158076,153.05739 99.445175,51.026472 101.18019,46.837804 l 0.37828,-0.913259 h 6.78274 6.78268 l 0.50134,1.278556 c 0.27573,0.703212 10.02807,24.785766 21.67187,53.516739 11.64378,28.73101 21.2269,52.43001 21.2958,52.66441 0.11902,0.40485 -2.39494,0.42618 -50.26098,0.42618 -47.864163,0 -50.380284,-0.0213 -50.266079,-0.42618 z m 79.538339,-11.32439 c -21.93289,-56.413751 -29.13137,-74.862968 -29.27016,-75.0174 -0.0946,-0.105273 -6.5783,16.278545 -14.408166,36.40839 -7.829868,20.12994 -14.447598,37.12041 -14.706058,37.75665 l -0.469942,1.15679 h 29.486366 c 23.48356,0 29.46222,-0.062 29.36796,-0.30443 z"
       id="path1623" />
    <rect
       style="display:inline;fill:none;fill-opacity:1;stroke:#636363;stroke-width:28.6465;stroke-linecap:round;stroke-linejoin:miter;stroke-miterlimit:4;stroke-dasharray:none;stroke-dashoffset:0;stroke-opacity:1"
       id="rect4530-3-0-7-7-9"
       width="27.233076"
       height="27.233074"
       x="194.28157"
       y="78.667114"
       transform="matrix(0.93635483,0.35105502,-0.93635483,0.35105502,0,0)" />
    <rect
       style="display:inline;fill:none;fill-opacity:1;stroke:#ffffff;stroke-width:16.2837;stroke-linecap:round;stroke-linejoin:miter;stroke-miterlimit:4;stroke-dasharray:none;stroke-dashoffset:0;stroke-opacity:1"
       id="rect4530-3-041-9-4"
       width="27.233076"
       height="27.233074"
       x="194.28157"
       y="78.667091"
       transform="matrix(0.93635484,0.35105501,-0.93635484,0.35105501,0,0)" />
  </g>
</svg>
