<?xml version="1.0" encoding="UTF-8" standalone="no"?>
<svg
   xmlns:dc="http://purl.org/dc/elements/1.1/"
   xmlns:cc="http://creativecommons.org/ns#"
   xmlns:rdf="http://www.w3.org/1999/02/22-rdf-syntax-ns#"
   xmlns:svg="http://www.w3.org/2000/svg"
   xmlns="http://www.w3.org/2000/svg"
   xmlns:sodipodi="http://sodipodi.sourceforge.net/DTD/sodipodi-0.dtd"
   xmlns:inkscape="http://www.inkscape.org/namespaces/inkscape"
   inkscape:export-ydpi="247.71001"
   inkscape:export-xdpi="247.71001"
   inkscape:export-filename="G:\DayZ_eAI_logo\github\bitmap\eAI_logo_256.png"
   sodipodi:docname="eAI_logo.svg"
   inkscape:version="1.0.2 (e86c870879, 2021-01-15, custom)"
   id="svg1122"
   version="1.1"
   viewBox="0 0 210 210"
   height="210mm"
   width="210mm">
  <defs
     id="defs1116" />
  <sodipodi:namedview
     id="base"
     pagecolor="#ffffff"
     bordercolor="#666666"
     borderopacity="1.0"
     inkscape:pageopacity="0.0"
     inkscape:pageshadow="2"
     inkscape:zoom="0.5198546"
     inkscape:cx="-26.448267"
     inkscape:cy="498.76323"
     inkscape:document-units="mm"
     inkscape:current-layer="g1577"
     inkscape:document-rotation="0"
     showgrid="false"
     inkscape:window-width="3440"
     inkscape:window-height="1373"
     inkscape:window-x="-9"
     inkscape:window-y="-9"
     inkscape:window-maximized="1" />
  <metadata
     id="metadata1119">
    <rdf:RDF>
      <cc:Work
         rdf:about="">
        <dc:format>image/svg+xml</dc:format>
        <dc:type
           rdf:resource="http://purl.org/dc/dcmitype/StillImage" />
        <dc:title></dc:title>
      </cc:Work>
    </rdf:RDF>
  </metadata>
  <g
     inkscape:groupmode="layer"
     id="layer4"
     inkscape:label="black"
     style="display:none"
     sodipodi:insensitive="true">
    <rect
       style="fill:#000000;stroke:#ffffff;stroke-width:5.92355;stroke-dashoffset:1.70079;stroke-opacity:1"
       id="rect845"
       width="258.12009"
       height="253.51195"
       x="-21.591494"
       y="-17.641655" />
  </g>
  <g
     inkscape:label="v4 eye"
     inkscape:groupmode="layer"
     id="g1577"
     style="display:inline">
    <path
       style="fill:#636363;fill-opacity:1;stroke-width:0.415321"
       d="m 102.89329,204.69268 c -73.974954,-0.0827 -92.796828,-0.20705 -92.632499,-0.61226 0.113414,-0.27969 17.962381,-44.34147 39.664369,-97.915 C 71.627134,52.591891 89.475653,8.5347659 89.588507,8.2607672 c 0.144441,-0.350469 1.916135,-0.5317569 5.97508,-0.6113491 22.778483,0 7.245213,0.09057 22.935073,0.09057 h 5.85779 l 0.83797,2.1396792 c 0.4609,1.1768207 18.30507,45.2390097 39.6537,97.9158927 21.34869,52.67692 38.91021,96.09721 39.02568,96.48948 0.19113,0.64939 -0.16367,0.70419 -3.96597,0.61224 -2.29673,-0.0556 -45.95327,-0.14777 -97.01454,-0.20468 z m 40.47699,-36.47651 c -0.26095,-1.25194 -35.91693,-92.940966 -36.30462,-93.35699 -0.24833,-0.266485 -35.907664,90.54263 -36.699044,93.45678 -0.220845,0.81326 -0.04495,0.81721 36.486454,0.81721 h 36.70834 z"
       id="path1625"
       sodipodi:nodetypes="sssscccsssssssssscs" />
    <path
       style="fill:#ffffff;fill-opacity:1;stroke-width:0.415321"
       d="m 22.392785,195.72918 c 0.154356,-0.547 69.248817,-171.297019 72.152386,-178.306806 l 0.633056,-1.52835 h 11.350993 11.35089 l 0.839,2.139679 c 0.46144,1.176834 16.7821,41.479281 36.26814,89.560947 19.48601,48.0817 35.52347,87.74226 35.63878,88.13453 0.19918,0.67752 -4.00796,0.71322 -84.11236,0.71322 -80.10125,0 -84.312009,-0.0357 -84.120885,-0.71322 z M 155.50115,176.77768 C 118.79619,82.368544 106.74945,51.493555 106.51718,51.235111 106.35887,51.058936 95.508327,78.477454 82.404952,112.16503 69.301573,145.85273 58.226721,174.28649 57.794185,175.35124 l -0.786454,1.9359 h 49.345779 c 39.30003,0 49.30539,-0.10375 49.14764,-0.50946 z"
       id="path1623" />
    <rect
       style="display:inline;fill:none;fill-opacity:1;stroke:#636363;stroke-width:47.9403;stroke-linecap:round;stroke-linejoin:miter;stroke-miterlimit:4;stroke-dasharray:none;stroke-dashoffset:0;stroke-opacity:1"
       id="rect4530-3-0-7-7-9"
       width="45.574883"
       height="45.574879"
       x="198.37471"
       y="84.756577"
       transform="matrix(0.93635483,0.35105502,-0.93635483,0.35105502,0,0)" />
    <rect
       style="display:inline;fill:none;fill-opacity:1;stroke:#ffffff;stroke-width:27.251;stroke-linecap:round;stroke-linejoin:miter;stroke-miterlimit:4;stroke-dasharray:none;stroke-dashoffset:0;stroke-opacity:1"
       id="rect4530-3-041-9-4"
       width="45.574883"
       height="45.574879"
       x="198.37471"
       y="84.756538"
       transform="matrix(0.93635484,0.35105501,-0.93635484,0.35105501,0,0)" />
  </g>
</svg>
